<svg xmlns="http://www.w3.org/2000/svg" xmlns:xlink="http://www.w3.org/1999/xlink" width="33pt" height="44pt" viewBox="0 0 33 44" version="1.1">
<g>
<path style=" stroke:none;fill-rule:nonzero;fill-opacity:1;" d="M 14.804688 43.113281 C 2.316406 25.011719 0 23.152344 0 16.5 C 0 7.386719 7.386719 0 16.5 0 C 25.613281 0 33 7.386719 33 16.5 C 33 23.152344 30.683594 25.011719 18.195312 43.113281 C 17.375 44.296875 15.625 44.296875 14.804688 43.113281 Z M 16.5 23.375 C 20.296875 23.375 23.375 20.296875 23.375 16.5 C 23.375 12.703125 20.296875 9.625 16.5 9.625 C 12.703125 9.625 9.625 12.703125 9.625 16.5 C 9.625 20.296875 12.703125 23.375 16.5 23.375 Z M 16.5 23.375 "/>
</g>
</svg>
